<?xml version="1.0" encoding="utf-8"?>
<!-- Generator: Adobe Illustrator 24.3.0, SVG Export Plug-In . SVG Version: 6.00 Build 0)  -->
<svg version="1.1" id="Layer_1" xmlns="http://www.w3.org/2000/svg" xmlns:xlink="http://www.w3.org/1999/xlink" x="0px" y="0px"
	 width="254.872px" height="46.34px" viewBox="0 0 254.872 46.34" style="enable-background:new 0 0 254.872 46.34;"
	 xml:space="preserve">
<style type="text/css">
	.st0{fill:#D32816;}
	.st1{fill:#FFFFFF;}
	.st2{display:none;fill:#D32816;}
</style>
<g id="Object">
	<g>
		<g>
			<path class="st0" d="M49.617,25.905c0.11-0.896,0.167-1.809,0.167-2.735c0-0.926-0.058-1.838-0.167-2.734l-3.722-0.932
				c-0.169-0.794-0.389-1.568-0.656-2.321l2.788-2.697c-0.719-1.695-1.642-3.283-2.739-4.733l-3.849,1.1
				c-0.506-0.554-1.044-1.077-1.613-1.567l1.11-3.885c-1.45-1.096-3.038-2.02-4.733-2.739l-2.89,2.987
				c-0.666-0.211-1.349-0.386-2.045-0.521l-1.015-4.055c-0.896-0.11-1.809-0.167-2.735-0.167c-0.926,0-1.838,0.058-2.734,0.167
				l-1.033,4.124c-0.664,0.143-1.316,0.32-1.951,0.531l-2.966-3.066c-1.695,0.719-3.284,1.643-4.733,2.739l1.175,4.11
				c-0.499,0.446-0.975,0.918-1.424,1.415L9.749,9.753c-1.096,1.45-2.02,3.037-2.739,4.733l3.026,2.928
				c-0.222,0.653-0.407,1.322-0.556,2.005L5.42,20.435c-0.11,0.896-0.167,1.809-0.167,2.734c0,0.926,0.057,1.839,0.167,2.735
				l3.959,0.991c0.139,0.731,0.319,1.446,0.54,2.144l-2.91,2.815c0.719,1.695,1.643,3.284,2.739,4.733l3.771-1.077
				c0.514,0.6,1.063,1.167,1.648,1.697L14.1,40.939c1.45,1.096,3.038,2.02,4.734,2.739l2.622-2.71
				c0.784,0.278,1.592,0.505,2.42,0.677l0.907,3.623c0.896,0.11,1.809,0.167,2.735,0.167c0.926,0,1.838-0.058,2.735-0.167
				l0.89-3.558c0.862-0.162,1.702-0.383,2.518-0.659l2.541,2.627c1.696-0.719,3.284-1.643,4.734-2.739l-1.002-3.506
				c0.656-0.573,1.271-1.191,1.84-1.85l3.513,1.004c1.096-1.45,2.02-3.037,2.739-4.733l-2.666-2.579
				c0.265-0.798,0.477-1.621,0.633-2.464L49.617,25.905z"/>
			<ellipse class="st1" cx="27.453" cy="23.217" rx="10.744" ry="10.744"/>
			<path class="st2" d="M51.454,22.401c-0.026-0.921-0.114-1.83-0.248-2.721l-4.74-0.785L44.86,14.41l3.159-3.621
				c-0.958-1.594-2.098-3.061-3.386-4.38l-4.298,2.157l-3.94-2.679l0.426-4.793c-1.634-0.689-3.362-1.207-5.156-1.518l-2.233,4.265
				l-4.765,0.112l-2.447-4.147c-1.832,0.418-3.583,1.039-5.225,1.846l0.702,4.76L13.909,9.31L9.496,7.404
				c-1.211,1.386-2.267,2.914-3.136,4.562L9.718,15.4l-1.353,4.567l-4.691,1.056c-0.084,0.945-0.12,1.911-0.09,2.892
				c0.033,0.896,0.114,1.773,0.235,2.64l4.742,0.799l1.592,4.489l-3.18,3.612c0.961,1.595,2.096,3.078,3.385,4.402l4.306-2.144
				l3.932,2.691l-0.446,4.794c1.687,0.714,3.465,1.251,5.314,1.567l2.22-4.275l4.765-0.132l2.456,4.141
				c1.83-0.426,3.578-1.056,5.22-1.867l-0.716-4.757l3.774-2.913l4.418,1.893c1.212-1.396,2.266-2.926,3.127-4.572l-3.378-3.42
				l1.336-4.58l4.694-1.064C51.455,24.288,51.487,23.348,51.454,22.401z M34.601,31.22c-4.446,3.906-11.227,3.489-15.151-0.98
				c-3.902-4.464-3.469-11.237,0.991-15.139c4.442-3.925,11.226-3.489,15.136,0.964C39.508,20.526,39.057,27.312,34.601,31.22z"/>
			<path class="st1" d="M37.636,14.276c-4.905-5.585-13.423-6.142-19.011-1.237c-5.581,4.91-6.134,13.414-1.216,19.008
				c4.904,5.583,13.416,6.133,18.998,1.228C41.994,28.37,42.542,19.858,37.636,14.276z M35.536,32.284
				c-5.035,4.424-12.712,3.928-17.136-1.108c-4.436-5.046-3.937-12.716,1.097-17.145c5.04-4.425,12.723-3.923,17.147,1.116
				C41.07,20.182,40.576,27.86,35.536,32.284z"/>
		</g>
	</g>
	<polygon class="st0" points="27.521,33.352 20.569,16.322 34.471,16.322 	"/>
	<rect x="21.212" y="19.129" class="st1" width="12.65" height="0.721"/>
	<rect x="27.162" y="19.129" class="st1" width="0.702" height="14.222"/>
</g>
<g id="BG">
	<g>
		<path class="st1" d="M17.054,37.629l0.351-0.57l0.774,0.476l1.446-2.353l0.712,0.438l-1.446,2.353l0.775,0.476l-0.35,0.571
			L17.054,37.629z"/>
		<path class="st1" d="M16.679,33.526l0.924,0.887l0.568-0.295l0.632,0.606l-3.272,1.616l-0.698-0.67l1.48-3.335l0.639,0.613
			L16.679,33.526z M16.387,34.14l-0.563,1.201l1.173-0.616L16.387,34.14z"/>
		<path class="st1" d="M14.565,29.58l0.448,0.706L13.975,32.6l1.787-1.134l0.448,0.706l-2.897,1.839l-0.448-0.706l1.046-2.32
			l-1.795,1.139l-0.448-0.706L14.565,29.58z"/>
		<path class="st1" d="M13.462,28.57l-0.505-1.387l0.643-0.234l0.83,2.277l-0.597,0.218l-2.486-0.655l0.502,1.378l-0.643,0.234
			l-0.83-2.277l0.597-0.218L13.462,28.57z"/>
		<path class="st1" d="M12.588,24.554l0.174,1.268l0.629,0.121l0.119,0.867l-3.568-0.763L9.81,25.088l3.23-1.697l0.12,0.876
			L12.588,24.554z M11.978,24.855l-1.187,0.592l1.301,0.245L11.978,24.855z"/>
		<path class="st1" d="M13.614,19.194l-0.143,0.823l-2.324,1.015l2.085,0.361l-0.143,0.823l-3.381-0.586l0.143-0.824l2.334-1.014
			L10.09,19.43l0.143-0.824L13.614,19.194z"/>
		<path class="st1" d="M14.039,16.594l-0.512,1.174L14,18.198L13.649,19l-2.648-2.511l0.387-0.887l3.641,0.235l-0.354,0.811
			L14.039,16.594z M13.362,16.534L12.04,16.42l0.983,0.888L13.362,16.534z"/>
		<path class="st1" d="M13.841,11.678l0.544,0.39l-0.531,0.738l2.243,1.611l-0.488,0.679l-2.243-1.611l-0.531,0.738l-0.544-0.391
			L13.841,11.678z"/>
		<path class="st1" d="M14.979,10.507l2.473,2.379l-0.58,0.602l-2.473-2.378L14.979,10.507z"/>
		<path class="st1" d="M18.214,11.916c-0.305,0.037-0.602-0.006-0.888-0.13c-0.286-0.124-0.528-0.322-0.726-0.593
			c-0.198-0.271-0.311-0.561-0.341-0.87c-0.029-0.309,0.02-0.603,0.149-0.883c0.129-0.28,0.324-0.514,0.584-0.704
			c0.261-0.19,0.544-0.304,0.849-0.341c0.305-0.037,0.6,0.006,0.882,0.131c0.282,0.125,0.522,0.323,0.721,0.594
			c0.198,0.271,0.313,0.561,0.344,0.871c0.032,0.31-0.016,0.603-0.143,0.882s-0.322,0.513-0.583,0.703
			C18.803,11.765,18.52,11.878,18.214,11.916z M18.984,10.35c0.025-0.244-0.05-0.488-0.227-0.73
			c-0.179-0.245-0.387-0.392-0.627-0.441c-0.239-0.049-0.47,0.007-0.691,0.168c-0.224,0.163-0.35,0.366-0.377,0.607
			c-0.027,0.242,0.05,0.487,0.23,0.734c0.179,0.245,0.387,0.392,0.627,0.441c0.239,0.049,0.471-0.008,0.695-0.171
			C18.835,10.797,18.958,10.594,18.984,10.35z"/>
		<path class="st1" d="M23.561,9.257L22.786,9.57l-2.088-1.441l0.791,1.963l-0.775,0.313l-1.283-3.183l0.775-0.313l2.092,1.45
			l-0.795-1.972l0.775-0.313L23.561,9.257z"/>
		<path class="st1" d="M25.994,8.243l-1.267,0.185l-0.116,0.629l-0.866,0.127l0.732-3.575l0.958-0.14l1.725,3.216l-0.875,0.128
			L25.994,8.243z M25.688,7.635l-0.603-1.181l-0.234,1.304L25.688,7.635z"/>
		<path class="st1" d="M28.251,8.156l1.093,0.055l-0.032,0.645l-1.928-0.097l0.172-3.427l0.835,0.042L28.251,8.156z"/>
		<path class="st1" d="M33.888,6.479l-0.192,0.642l-0.871-0.261l-0.793,2.645l-0.801-0.24l0.793-2.645l-0.871-0.261l0.192-0.642
			L33.888,6.479z"/>
		<path class="st1" d="M34.68,10.695l-0.004-1.479L34.501,9.12l-0.623,1.136l-0.733-0.402l1.649-3.009l1.23,0.674
			c0.237,0.13,0.417,0.282,0.538,0.456c0.121,0.175,0.185,0.357,0.188,0.546c0.004,0.19-0.043,0.373-0.14,0.55
			c-0.11,0.2-0.264,0.348-0.463,0.443c-0.199,0.096-0.426,0.116-0.682,0.061l0.041,1.572L34.68,10.695z M34.785,8.601L35.24,8.85
			c0.134,0.074,0.253,0.096,0.356,0.067s0.188-0.103,0.254-0.224c0.063-0.114,0.078-0.223,0.047-0.325
			c-0.031-0.103-0.114-0.19-0.248-0.264l-0.454-0.249L34.785,8.601z"/>
		<path class="st1" d="M37.803,12.246l-0.969-0.837l-0.551,0.324l-0.662-0.572l3.182-1.786l0.732,0.633l-1.303,3.409l-0.669-0.579
			L37.803,12.246z M38.063,11.617l0.499-1.229l-1.139,0.676L38.063,11.617z"/>
		<path class="st1" d="M42.255,13.521c0.041,0.303-0.001,0.591-0.125,0.862c-0.124,0.271-0.324,0.506-0.6,0.703
			c-0.273,0.196-0.558,0.309-0.857,0.34s-0.585-0.022-0.86-0.16c-0.275-0.138-0.517-0.352-0.725-0.643l-0.749-1.045l2.789-1.999
			l0.749,1.045C42.088,12.919,42.214,13.218,42.255,13.521z M40.285,14.608c0.243,0.042,0.493-0.028,0.75-0.212
			c0.257-0.184,0.406-0.399,0.446-0.645c0.041-0.245-0.031-0.497-0.215-0.754l-0.231-0.322l-1.621,1.162l0.231,0.322
			C39.829,14.416,40.042,14.566,40.285,14.608z"/>
		<path class="st1" d="M43.1,16.025l-0.634,0.282l0.455,1.023l-0.59,0.262l-0.455-1.023l-0.688,0.305l0.514,1.157l-0.613,0.272
			l-0.853-1.921l3.136-1.393l0.853,1.921l-0.612,0.272L43.1,16.025z"/>
		<path class="st1" d="M41.68,20.161c0.048-0.209,0.14-0.386,0.278-0.53c0.138-0.144,0.317-0.237,0.538-0.281l0.147,0.877
			c-0.123,0.034-0.212,0.093-0.265,0.178c-0.054,0.085-0.07,0.187-0.051,0.306c0.021,0.122,0.065,0.214,0.133,0.275
			c0.068,0.061,0.152,0.084,0.252,0.067c0.084-0.014,0.148-0.054,0.193-0.119c0.045-0.065,0.078-0.142,0.1-0.23
			c0.022-0.088,0.042-0.211,0.062-0.37c0.031-0.23,0.068-0.419,0.113-0.569c0.044-0.15,0.124-0.285,0.239-0.407
			c0.115-0.121,0.279-0.201,0.491-0.236c0.315-0.052,0.581,0.02,0.797,0.219c0.216,0.198,0.356,0.481,0.416,0.847
			c0.063,0.373,0.024,0.688-0.117,0.946c-0.14,0.258-0.368,0.422-0.683,0.491l-0.149-0.892c0.108-0.025,0.188-0.079,0.238-0.163
			c0.05-0.084,0.066-0.185,0.047-0.3c-0.017-0.1-0.057-0.176-0.12-0.228c-0.063-0.052-0.145-0.07-0.244-0.053
			c-0.109,0.018-0.186,0.084-0.229,0.197c-0.044,0.113-0.083,0.285-0.117,0.515c-0.037,0.231-0.078,0.42-0.123,0.568
			c-0.045,0.148-0.123,0.282-0.235,0.403c-0.112,0.121-0.269,0.199-0.472,0.232c-0.193,0.032-0.376,0.012-0.55-0.059
			c-0.174-0.072-0.323-0.193-0.448-0.364c-0.124-0.171-0.208-0.383-0.25-0.637C41.629,20.6,41.632,20.371,41.68,20.161z"/>
		<path class="st1" d="M44.578,22.637c0.257,0.161,0.452,0.377,0.586,0.647c0.133,0.27,0.191,0.571,0.172,0.903
			c-0.022,0.407-0.149,0.749-0.38,1.027s-0.534,0.455-0.911,0.532l0.051-0.918c0.147-0.06,0.261-0.151,0.343-0.272
			c0.082-0.121,0.127-0.261,0.136-0.42c0.014-0.257-0.064-0.47-0.234-0.64c-0.17-0.169-0.405-0.262-0.704-0.279
			c-0.3-0.017-0.543,0.05-0.731,0.199c-0.188,0.149-0.289,0.353-0.303,0.61c-0.009,0.159,0.021,0.304,0.088,0.433
			c0.068,0.129,0.172,0.232,0.311,0.308l-0.051,0.918c-0.366-0.119-0.647-0.328-0.844-0.63s-0.284-0.656-0.261-1.062
			c0.018-0.332,0.109-0.625,0.272-0.878c0.163-0.254,0.38-0.446,0.652-0.578c0.272-0.132,0.577-0.188,0.915-0.169
			C44.024,22.386,44.321,22.476,44.578,22.637z"/>
		<path class="st1" d="M44.114,29.782l-3.281-1.005l0.245-0.799l1.35,0.413l0.381-1.243l-1.35-0.413l0.245-0.799l3.281,1.005
			L44.74,27.74l-1.285-0.393l-0.381,1.243l1.285,0.393L44.114,29.782z"/>
		<path class="st1" d="M40.465,29.888c0.267-0.154,0.556-0.229,0.867-0.227c0.312,0.002,0.612,0.09,0.9,0.262
			c0.288,0.172,0.506,0.395,0.655,0.668c0.148,0.272,0.218,0.563,0.208,0.87c-0.009,0.308-0.097,0.6-0.262,0.877
			c-0.166,0.277-0.382,0.492-0.648,0.646c-0.267,0.154-0.554,0.229-0.863,0.224c-0.309-0.004-0.607-0.093-0.895-0.265
			c-0.288-0.172-0.507-0.395-0.658-0.667c-0.15-0.272-0.221-0.561-0.213-0.867c0.008-0.306,0.096-0.598,0.261-0.875
			C39.982,30.257,40.198,30.042,40.465,29.888z M40.369,31.63c0.072,0.235,0.237,0.429,0.494,0.583c0.26,0.156,0.51,0.209,0.75,0.16
			c0.24-0.048,0.43-0.19,0.57-0.425c0.142-0.238,0.179-0.474,0.109-0.706c-0.07-0.234-0.235-0.429-0.498-0.586
			c-0.26-0.156-0.51-0.209-0.75-0.16c-0.239,0.048-0.43,0.192-0.573,0.429C40.331,31.161,40.297,31.396,40.369,31.63z"/>
		<path class="st1" d="M38.376,32.913c0.297-0.082,0.596-0.083,0.897-0.003c0.301,0.08,0.57,0.24,0.806,0.479
			s0.391,0.509,0.466,0.81c0.075,0.301,0.07,0.6-0.017,0.895c-0.086,0.295-0.244,0.557-0.474,0.783
			c-0.229,0.226-0.493,0.381-0.79,0.463c-0.297,0.082-0.594,0.083-0.892,0.001c-0.298-0.081-0.565-0.242-0.8-0.481
			c-0.236-0.239-0.392-0.509-0.47-0.81c-0.077-0.301-0.074-0.599,0.011-0.893c0.085-0.294,0.242-0.555,0.472-0.781
			C37.816,33.149,38.079,32.995,38.376,32.913z M37.846,34.575c0.011,0.245,0.122,0.475,0.333,0.688
			c0.213,0.216,0.441,0.33,0.685,0.343c0.244,0.013,0.464-0.076,0.659-0.269c0.197-0.195,0.291-0.413,0.282-0.656
			c-0.009-0.243-0.121-0.474-0.336-0.692c-0.213-0.216-0.441-0.33-0.685-0.343s-0.465,0.078-0.662,0.272
			C37.927,34.111,37.835,34.33,37.846,34.575z"/>
		<path class="st1" d="M35.719,35.746L34.8,36.341l-0.351-0.541l1.621-1.05l1.865,2.88l-0.701,0.455L35.719,35.746z"/>
	</g>
	<path class="st1" d="M22.472,38.282c0,0.346-0.281,0.627-0.627,0.627s-0.627-0.281-0.627-0.627s0.281-0.627,0.627-0.627
		S22.472,37.935,22.472,38.282z"/>
	<circle class="st1" cx="34.97" cy="37.655" r="0.627"/>
	<g>
		<g>
			<path class="st1" d="M23.352,37.932c0.043-0.304,0.065-0.457,0.109-0.761c0.531,0.075,0.798,0.107,1.331,0.155
				c-0.106,1.172-0.212,2.344-0.318,3.516c-0.389-0.035-0.583-0.056-0.971-0.104c0.113-0.913,0.226-1.827,0.339-2.74
				C23.646,37.973,23.548,37.96,23.352,37.932z"/>
			<path class="st1" d="M26.635,40.305c0.189,0.004,0.324-0.071,0.402-0.223c0.078-0.151,0.117-0.398,0.117-0.739
				c-0.076,0.1-0.18,0.177-0.313,0.231c-0.133,0.054-0.282,0.078-0.446,0.074c-0.224-0.006-0.421-0.057-0.59-0.15
				c-0.17-0.094-0.298-0.229-0.385-0.404c-0.087-0.175-0.121-0.383-0.105-0.625c0.016-0.238,0.081-0.442,0.192-0.613
				c0.111-0.171,0.259-0.3,0.446-0.387c0.186-0.088,0.402-0.129,0.649-0.123c0.475,0.01,0.806,0.154,1.003,0.447
				c0.197,0.294,0.308,0.727,0.324,1.304c0.012,0.419-0.019,0.766-0.096,1.04c-0.077,0.274-0.215,0.485-0.415,0.628
				c-0.2,0.144-0.477,0.215-0.827,0.209c-0.278-0.005-0.512-0.062-0.703-0.167c-0.19-0.105-0.331-0.241-0.425-0.404
				c-0.093-0.163-0.139-0.341-0.142-0.532c0.334,0.021,0.501,0.029,0.834,0.041C26.2,40.166,26.361,40.3,26.635,40.305z
				 M26.956,38.88c0.086-0.081,0.128-0.193,0.128-0.336c0.001-0.155-0.042-0.274-0.128-0.359c-0.086-0.084-0.2-0.127-0.345-0.13
				c-0.145-0.003-0.261,0.037-0.347,0.119c-0.087,0.083-0.134,0.198-0.14,0.346c-0.005,0.139,0.034,0.252,0.117,0.34
				c0.084,0.088,0.208,0.135,0.372,0.138C26.756,39.002,26.871,38.962,26.956,38.88z"/>
			<path class="st1" d="M30.64,37.825c-0.297,1.024-0.625,2.031-0.988,3.033c-0.382,0.032-0.573,0.045-0.955,0.065
				c0.402-0.959,0.771-1.926,1.109-2.91c-0.613,0.061-0.921,0.082-1.536,0.107c-0.012-0.282-0.018-0.423-0.029-0.705
				c0.776-0.032,1.55-0.098,2.321-0.199C30.592,37.459,30.608,37.581,30.64,37.825z"/>
			<path class="st1" d="M31.283,37.307c0.182-0.218,0.449-0.357,0.806-0.426c0.236-0.045,0.447-0.047,0.634-0.001
				c0.186,0.045,0.34,0.127,0.461,0.248c0.12,0.121,0.203,0.269,0.245,0.444c0.049,0.207,0.035,0.389-0.044,0.544
				c-0.079,0.156-0.188,0.274-0.326,0.353c0.002,0.008,0.002,0.011,0.004,0.019c0.204,0.018,0.378,0.083,0.522,0.195
				c0.144,0.112,0.243,0.275,0.295,0.492c0.047,0.195,0.039,0.378-0.027,0.551c-0.065,0.173-0.185,0.324-0.361,0.451
				c-0.176,0.127-0.399,0.219-0.669,0.271c-0.431,0.084-0.794,0.047-1.079-0.1c-0.285-0.147-0.459-0.413-0.527-0.791
				c0.347-0.05,0.52-0.077,0.865-0.137c0.028,0.139,0.091,0.242,0.189,0.308c0.098,0.066,0.229,0.084,0.391,0.053
				c0.137-0.027,0.236-0.083,0.297-0.17c0.061-0.086,0.078-0.188,0.054-0.305c-0.032-0.152-0.107-0.25-0.225-0.297
				c-0.118-0.047-0.291-0.048-0.52-0.005c-0.065,0.012-0.098,0.018-0.164,0.029c-0.047-0.265-0.071-0.397-0.117-0.662
				c0.064-0.011,0.096-0.017,0.16-0.029c0.17-0.031,0.302-0.086,0.396-0.162c0.093-0.076,0.125-0.186,0.096-0.328
				c-0.024-0.114-0.074-0.195-0.152-0.245c-0.078-0.05-0.173-0.064-0.286-0.042c-0.123,0.024-0.208,0.077-0.255,0.16
				c-0.047,0.084-0.067,0.18-0.057,0.29c-0.33,0.058-0.495,0.085-0.827,0.133C31.024,37.804,31.101,37.525,31.283,37.307z"/>
		</g>
	</g>
</g>
<g>
	<path class="st1" d="M62.902,18.066v1.907h-6.438v-1.907H62.902z M58.341,18.98h2.67v8.878h-2.67V18.98z"/>
	<path class="st1" d="M71.261,27.858h-2.685l-1.464-6.879l-1.51,6.879h-2.624l2.517-9.793h3.249L71.261,27.858z M69.583,24.503
		v1.891h-4.896v-1.891H69.583z"/>
	<path class="st1" d="M76.341,18.066h2.441v9.793h-2.289l-2.181-5.14v5.14h-2.44v-9.793h2.288l2.181,5.232V18.066z"/>
	<path class="st1" d="M83.373,19.972h2.792l-3.676,5.98h-2.792L83.373,19.972z M86.058,25.952v1.906h-6.361v-1.906H86.058z
		 M86.165,18.066v1.907h-6.27v-1.907H86.165z"/>
	<path class="st1" d="M94.753,27.858h-2.685l-1.464-6.879l-1.51,6.879H86.47l2.517-9.793h3.249L94.753,27.858z M93.075,24.503v1.891
		h-4.896v-1.891H93.075z"/>
	<path class="st1" d="M102.884,18.066h2.441v9.793h-2.289l-2.181-5.14v5.14h-2.44v-9.793h2.288l2.181,5.232V18.066z"/>
	<path class="st1" d="M114.218,27.858h-2.685l-1.464-6.879l-1.51,6.879h-2.624l2.517-9.793h3.249L114.218,27.858z M112.54,24.503
		v1.891h-4.896v-1.891H112.54z"/>
	<path class="st1" d="M120.732,18.066v1.907h-6.438v-1.907H120.732z M116.171,18.98h2.669v8.878h-2.669V18.98z"/>
	<path class="st1" d="M121.418,18.066h2.67v9.793h-2.67V18.066z"/>
	<path class="st1" d="M127.931,20.308v1.846h-2.669v-2.197c0-0.57,0.17-1.027,0.511-1.373c0.34-0.345,0.918-0.518,1.732-0.518h1.312
		v1.907h-0.504c-0.133,0-0.228,0.028-0.289,0.084C127.963,20.112,127.931,20.196,127.931,20.308z M127.931,21.956v3.66
		c0,0.112,0.032,0.197,0.093,0.252c0.061,0.055,0.156,0.084,0.289,0.084h0.504v1.906h-1.312c-0.814,0-1.391-0.173-1.732-0.518
		c-0.34-0.346-0.511-0.804-0.511-1.373v-4.012H127.931z M129.334,22.154v-1.846c0-0.111-0.03-0.196-0.091-0.252
		c-0.061-0.055-0.158-0.084-0.289-0.084h-0.504v-1.907h1.312c0.815,0,1.392,0.173,1.732,0.518c0.34,0.346,0.511,0.803,0.511,1.373
		v2.197H129.334z M129.334,25.616v-3.66h2.671v4.012c0,0.569-0.17,1.027-0.511,1.373c-0.34,0.345-0.918,0.518-1.732,0.518h-1.312
		v-1.906h0.504c0.131,0,0.228-0.029,0.289-0.084C129.304,25.813,129.334,25.728,129.334,25.616z"/>
	<path class="st1" d="M137.649,18.066h2.44v9.793h-2.288l-2.181-5.14v5.14h-2.44v-9.793h2.288l2.181,5.232V18.066z"/>
	<path class="st1" d="M148.983,27.858h-2.684l-1.464-6.879l-1.51,6.879H140.7l2.516-9.793h3.25L148.983,27.858z M147.305,24.503
		v1.891h-4.897v-1.891H147.305z"/>
	<path class="st1" d="M149.593,18.066h2.67v9.793h-2.67V18.066z M150.478,27.858v-1.906h4.821v1.906H150.478z"/>
	<path class="st1" d="M164.863,18.066v1.907h-6.438v-1.907H164.863z M160.302,18.98h2.669v8.878h-2.669V18.98z"/>
	<path class="st1" d="M165.549,18.066h2.67v9.793h-2.67V18.066z M169.653,22.23v-1.922c0-0.111-0.032-0.196-0.093-0.252
		c-0.061-0.055-0.158-0.084-0.289-0.084h-2.837v-1.907h3.646c0.814,0,1.391,0.173,1.732,0.518c0.34,0.346,0.511,0.803,0.511,1.373
		v2.532c0,0.57-0.17,1.028-0.511,1.373c-0.34,0.346-0.918,0.518-1.732,0.518h-3.646v-1.815h2.837c0.131,0,0.228-0.028,0.289-0.084
		C169.622,22.426,169.653,22.342,169.653,22.23z M167.914,23.313h2.609l2.288,4.545h-2.868L167.914,23.313z"/>
	<path class="st1" d="M181.063,27.858h-2.684l-1.464-6.879l-1.51,6.879h-2.624l2.516-9.793h3.25L181.063,27.858z M179.385,24.503
		v1.891h-4.897v-1.891H179.385z"/>
	<path class="st1" d="M181.825,18.066h2.67v9.793h-2.67V18.066z M185.899,22.154v-1.998c0-0.112-0.03-0.196-0.091-0.252
		c-0.062-0.056-0.158-0.084-0.291-0.084h-2.807v-1.754h3.615c0.814,0,1.391,0.173,1.732,0.518c0.34,0.346,0.511,0.803,0.511,1.373
		v2.197H185.899z M185.899,25.768v-3.813h2.669v4.012c0,0.569-0.17,1.027-0.511,1.373c-0.34,0.345-0.918,0.518-1.732,0.518h-3.615
		v-1.754h2.807c0.133,0,0.228-0.028,0.291-0.084C185.869,25.965,185.899,25.88,185.899,25.768z"/>
	<path class="st1" d="M189.743,18.066h2.67v9.793h-2.67V18.066z M195.616,18.066v1.907h-4.928v-1.907H195.616z M195.753,25.952
		v1.906h-5.065v-1.906H195.753z M195.173,21.971v1.907h-4.287v-1.907H195.173z"/>
	<path class="st1" d="M203.396,25.616v-1.388c0-0.112-0.03-0.196-0.091-0.252c-0.061-0.055-0.158-0.084-0.291-0.084h-1.464
		c-0.793,0-1.334-0.178-1.624-0.534c-0.291-0.356-0.435-0.819-0.435-1.388v-2.014c0-0.57,0.167-1.027,0.502-1.373
		c0.336-0.345,0.911-0.518,1.725-0.518h2.09c0.812,0,1.388,0.173,1.723,0.518c0.335,0.346,0.504,0.803,0.504,1.373v1.174h-2.67
		v-0.824c0-0.111-0.03-0.196-0.091-0.252c-0.061-0.055-0.158-0.084-0.291-0.084h-0.442c-0.133,0-0.228,0.028-0.291,0.084
		c-0.061,0.056-0.091,0.14-0.091,0.252v1.449c0,0.112,0.03,0.196,0.091,0.252c0.062,0.056,0.158,0.084,0.291,0.084h1.434
		c0.793,0,1.34,0.168,1.64,0.503c0.299,0.336,0.45,0.788,0.45,1.358v2.014c0,0.569-0.169,1.027-0.504,1.373
		c-0.335,0.345-0.911,0.518-1.723,0.518h-2.075c-0.814,0-1.391-0.173-1.732-0.518c-0.34-0.346-0.511-0.804-0.511-1.373v-1.175h2.669
		v0.824c0,0.112,0.03,0.197,0.091,0.252c0.062,0.055,0.158,0.084,0.291,0.084h0.442c0.133,0,0.23-0.029,0.291-0.084
		C203.365,25.813,203.396,25.728,203.396,25.616z"/>
	<path class="st1" d="M209.725,20.156v5.613c0,0.112,0.03,0.197,0.093,0.252c0.061,0.057,0.156,0.084,0.289,0.084h0.396v1.754
		h-1.204c-0.814,0-1.391-0.173-1.732-0.518c-0.34-0.346-0.511-0.804-0.511-1.373v-6.011c0-0.57,0.17-1.027,0.511-1.373
		c0.34-0.345,0.918-0.518,1.732-0.518h1.204v1.754h-0.396c-0.133,0-0.228,0.028-0.289,0.084
		C209.756,19.96,209.725,20.043,209.725,20.156z M211.022,21.727v-1.571c0-0.112-0.03-0.196-0.091-0.252
		c-0.061-0.056-0.158-0.084-0.289-0.084h-0.397v-1.754h1.206c0.814,0,1.39,0.173,1.732,0.518c0.34,0.346,0.511,0.803,0.511,1.373
		v1.77H211.022z M211.022,25.768v-1.509h2.67v1.709c0,0.569-0.17,1.027-0.511,1.373c-0.342,0.345-0.918,0.518-1.732,0.518h-1.206
		v-1.754h0.397c0.131,0,0.228-0.028,0.289-0.084C210.992,25.965,211.022,25.88,211.022,25.768z"/>
	<path class="st1" d="M214.683,18.066h2.623v9.793h-2.623V18.066z M219.565,22.077v1.907h-2.746v-1.907H219.565z M219.229,18.066
		h2.624v9.793h-2.624V18.066z"/>
	<path class="st1" d="M225.697,20.308v1.846h-2.669v-2.197c0-0.57,0.17-1.027,0.511-1.373c0.34-0.345,0.918-0.518,1.732-0.518h1.312
		v1.907h-0.504c-0.133,0-0.228,0.028-0.289,0.084C225.729,20.112,225.697,20.196,225.697,20.308z M225.697,21.956v3.66
		c0,0.112,0.032,0.197,0.093,0.252c0.061,0.055,0.156,0.084,0.289,0.084h0.504v1.906h-1.312c-0.814,0-1.391-0.173-1.732-0.518
		c-0.34-0.346-0.511-0.804-0.511-1.373v-4.012H225.697z M227.101,22.154v-1.846c0-0.111-0.03-0.196-0.091-0.252
		c-0.061-0.055-0.158-0.084-0.289-0.084h-0.504v-1.907h1.312c0.814,0,1.391,0.173,1.732,0.518c0.34,0.346,0.511,0.803,0.511,1.373
		v2.197H227.101z M227.101,25.616v-3.66h2.67v4.012c0,0.569-0.17,1.027-0.511,1.373c-0.34,0.345-0.918,0.518-1.732,0.518h-1.312
		v-1.906h0.504c0.132,0,0.228-0.029,0.289-0.084C227.07,25.813,227.101,25.728,227.101,25.616z"/>
	<path class="st1" d="M233.569,20.308v1.846H230.9v-2.197c0-0.57,0.17-1.027,0.511-1.373c0.34-0.345,0.918-0.518,1.732-0.518h1.312
		v1.907h-0.504c-0.133,0-0.228,0.028-0.289,0.084C233.6,20.112,233.569,20.196,233.569,20.308z M233.569,21.956v3.66
		c0,0.112,0.032,0.197,0.093,0.252c0.061,0.055,0.156,0.084,0.289,0.084h0.504v1.906h-1.312c-0.814,0-1.391-0.173-1.732-0.518
		c-0.34-0.346-0.511-0.804-0.511-1.373v-4.012H233.569z M234.972,22.154v-1.846c0-0.111-0.03-0.196-0.091-0.252
		c-0.061-0.055-0.158-0.084-0.289-0.084h-0.504v-1.907h1.312c0.814,0,1.391,0.173,1.732,0.518c0.34,0.346,0.511,0.803,0.511,1.373
		v2.197H234.972z M234.972,25.616v-3.66h2.67v4.012c0,0.569-0.17,1.027-0.511,1.373c-0.34,0.345-0.918,0.518-1.732,0.518h-1.312
		v-1.906h0.504c0.131,0,0.228-0.029,0.289-0.084C234.942,25.813,234.972,25.728,234.972,25.616z"/>
	<path class="st1" d="M238.816,18.066h2.67v9.793h-2.67V18.066z M239.7,27.858v-1.906h4.821v1.906H239.7z"/>
</g>
</svg>
