<?xml version="1.0" encoding="utf-8"?>
<!-- Generator: Adobe Illustrator 24.3.0, SVG Export Plug-In . SVG Version: 6.00 Build 0)  -->
<svg version="1.2" baseProfile="tiny" id="Layer_1" xmlns="http://www.w3.org/2000/svg" xmlns:xlink="http://www.w3.org/1999/xlink"
	 x="0px" y="0px" viewBox="0 0 176 32" overflow="visible" xml:space="preserve">
<g id="Object">
	<g>
		<g>
			<path fill="#D32816" d="M23.8,16.3c0.1-0.4,0.1-0.8,0.1-1.3c0-0.4,0-0.8-0.1-1.3l-1.7-0.4c-0.1-0.4-0.2-0.7-0.3-1.1l1.3-1.2
				c-0.3-0.8-0.8-1.5-1.3-2.2L20,9.4c-0.2-0.3-0.5-0.5-0.7-0.7l0.5-1.8c-0.7-0.5-1.4-0.9-2.2-1.3L16.3,7c-0.3-0.1-0.6-0.2-0.9-0.2
				l-0.5-1.9c-0.4-0.1-0.8-0.1-1.3-0.1c-0.4,0-0.8,0-1.3,0.1l-0.5,1.9C11.6,6.9,11.3,7,11,7.1L9.7,5.6C8.9,6,8.2,6.4,7.5,6.9
				l0.5,1.9C7.8,9,7.6,9.2,7.4,9.4L5.5,8.9C5,9.6,4.6,10.3,4.3,11.1l1.4,1.3c-0.1,0.3-0.2,0.6-0.3,0.9l-1.9,0.5
				c-0.1,0.4-0.1,0.8-0.1,1.3c0,0.4,0,0.8,0.1,1.3l1.8,0.5c0.1,0.3,0.1,0.7,0.2,1L4.3,19c0.3,0.8,0.8,1.5,1.3,2.2l1.7-0.5
				C7.5,21,7.7,21.2,8,21.5l-0.5,1.7c0.7,0.5,1.4,0.9,2.2,1.3l1.2-1.2c0.4,0.1,0.7,0.2,1.1,0.3l0.4,1.7c0.4,0.1,0.8,0.1,1.3,0.1
				s0.8,0,1.3-0.1l0.4-1.6c0.4-0.1,0.8-0.2,1.2-0.3l1.2,1.2c0.8-0.3,1.5-0.8,2.2-1.3l-0.5-1.6c0.3-0.3,0.6-0.5,0.8-0.8l1.6,0.5
				c0.5-0.7,0.9-1.4,1.3-2.2l-1.2-1.2c0.1-0.4,0.2-0.7,0.3-1.1L23.8,16.3z"/>
			<ellipse fill="#FFFFFF" cx="13.6" cy="15.1" rx="4.9" ry="4.9"/>
			<path display="none" fill="#D32816" d="M24.6,14.7c0-0.4-0.1-0.8-0.1-1.2l-2.2-0.4L21.6,11l1.4-1.7c-0.4-0.7-1-1.4-1.6-2l-2,1
				l-1.8-1.2l0.2-2.2c-0.7-0.3-1.5-0.6-2.4-0.7l-1,2l-2.2,0.1l-1.1-1.9c-0.8,0.2-1.6,0.5-2.4,0.8l0.3,2.2L7.4,8.7l-2-0.9
				C4.8,8.5,4.4,9.2,4,9.9l1.5,1.6l-0.6,2.1l-2.2,0.5c0,0.4-0.1,0.9,0,1.3c0,0.4,0.1,0.8,0.1,1.2L5,17L5.7,19l-1.5,1.7
				c0.4,0.7,1,1.4,1.6,2l2-1L9.6,23l-0.2,2.2c0.8,0.3,1.6,0.6,2.4,0.7l1-2l2.2-0.1l1.1,1.9c0.8-0.2,1.6-0.5,2.4-0.9l-0.3-2.2
				l1.7-1.3l2,0.9c0.6-0.6,1-1.3,1.4-2.1l-1.5-1.6l0.6-2.1l2.2-0.5C24.6,15.6,24.7,15.1,24.6,14.7z M16.9,18.7
				c-2,1.8-5.1,1.6-6.9-0.4c-1.8-2-1.6-5.2,0.5-6.9c2-1.8,5.1-1.6,6.9,0.4C19.2,13.8,19,16.9,16.9,18.7z"/>
			<path fill="#FFFFFF" d="M18.3,11c-2.2-2.6-6.2-2.8-8.7-0.6C7,12.7,6.8,16.6,9,19.1c2.2,2.6,6.2,2.8,8.7,0.6
				C20.3,17.4,20.6,13.5,18.3,11z M17.3,19.2c-2.3,2-5.8,1.8-7.9-0.5c-2-2.3-1.8-5.8,0.5-7.9c2.3-2,5.8-1.8,7.9,0.5
				C19.9,13.7,19.7,17.2,17.3,19.2z"/>
		</g>
	</g>
	<polygon fill="#D32816" points="13.7,19.7 10.5,11.9 16.9,11.9 	"/>
	<rect x="10.8" y="13.2" fill="#FFFFFF" width="5.8" height="0.3"/>
	<rect x="13.5" y="13.2" fill="#FFFFFF" width="0.3" height="6.5"/>
</g>
<g id="BG">
	<g>
		<path fill="#FFFFFF" d="M8.9,21.7L9,21.4l0.4,0.2l0.7-1.1l0.3,0.2l-0.7,1.1l0.4,0.2l-0.2,0.3L8.9,21.7z"/>
		<path fill="#FFFFFF" d="M8.7,19.8l0.4,0.4l0.3-0.1l0.3,0.3l-1.5,0.7l-0.3-0.3l0.7-1.5l0.3,0.3L8.7,19.8z M8.6,20.1l-0.3,0.6
			l0.5-0.3L8.6,20.1z"/>
		<path fill="#FFFFFF" d="M7.7,18l0.2,0.3l-0.5,1.1l0.8-0.5l0.2,0.3L7.2,20l-0.2-0.3l0.5-1.1l-0.8,0.5l-0.2-0.3L7.7,18z"/>
		<path fill="#FFFFFF" d="M7.2,17.5L7,16.9l0.3-0.1l0.4,1l-0.3,0.1l-1.1-0.3l0.2,0.6l-0.3,0.1l-0.4-1l0.3-0.1L7.2,17.5z"/>
		<path fill="#FFFFFF" d="M6.8,15.7l0.1,0.6l0.3,0.1l0.1,0.4l-1.6-0.3l-0.1-0.4L7,15.2l0.1,0.4L6.8,15.7z M6.5,15.8L6,16.1l0.6,0.1
			L6.5,15.8z"/>
		<path fill="#FFFFFF" d="M7.3,13.2l-0.1,0.4l-1.1,0.5l1,0.2l-0.1,0.4l-1.5-0.3L5.6,14l1.1-0.5l-1-0.2L5.7,13L7.3,13.2z"/>
		<path fill="#FFFFFF" d="M7.5,12l-0.2,0.5l0.2,0.2l-0.2,0.4L6.1,12l0.2-0.4l1.7,0.1l-0.2,0.4L7.5,12z M7.2,12L6.6,12L7,12.4L7.2,12
			z"/>
		<path fill="#FFFFFF" d="M7.4,9.8L7.6,10l-0.2,0.3l1,0.7l-0.2,0.3l-1-0.7l-0.2,0.3l-0.2-0.2L7.4,9.8z"/>
		<path fill="#FFFFFF" d="M7.9,9.2l1.1,1.1l-0.3,0.3L7.7,9.5L7.9,9.2z"/>
		<path fill="#FFFFFF" d="M9.4,9.9c-0.1,0-0.3,0-0.4-0.1C8.9,9.8,8.8,9.7,8.7,9.6C8.6,9.4,8.5,9.3,8.5,9.2c0-0.1,0-0.3,0.1-0.4
			c0.1-0.1,0.1-0.2,0.3-0.3C9,8.3,9.1,8.3,9.2,8.3c0.1,0,0.3,0,0.4,0.1C9.8,8.4,9.9,8.5,10,8.6c0.1,0.1,0.1,0.3,0.2,0.4
			c0,0.1,0,0.3-0.1,0.4C10,9.5,9.9,9.6,9.8,9.7C9.7,9.8,9.5,9.9,9.4,9.9z M9.8,9.2c0-0.1,0-0.2-0.1-0.3C9.6,8.7,9.5,8.7,9.4,8.6
			c-0.1,0-0.2,0-0.3,0.1C8.9,8.8,8.9,8.9,8.9,9c0,0.1,0,0.2,0.1,0.3c0.1,0.1,0.2,0.2,0.3,0.2c0.1,0,0.2,0,0.3-0.1
			C9.7,9.4,9.7,9.3,9.8,9.2z"/>
		<path fill="#FFFFFF" d="M11.9,8.7l-0.4,0.1l-1-0.7l0.4,0.9l-0.4,0.1L10,7.7l0.4-0.1l1,0.7l-0.4-0.9l0.4-0.1L11.9,8.7z"/>
		<path fill="#FFFFFF" d="M13,8.2l-0.6,0.1l-0.1,0.3l-0.4,0.1L12.3,7l0.4-0.1l0.8,1.5l-0.4,0.1L13,8.2z M12.8,7.9l-0.3-0.5L12.4,8
			L12.8,7.9z"/>
		<path fill="#FFFFFF" d="M14,8.2l0.5,0l0,0.3l-0.9,0l0.1-1.6l0.4,0L14,8.2z"/>
		<path fill="#FFFFFF" d="M16.6,7.4l-0.1,0.3l-0.4-0.1l-0.4,1.2l-0.4-0.1l0.4-1.2l-0.4-0.1L15.4,7L16.6,7.4z"/>
		<path fill="#FFFFFF" d="M17,9.3l0-0.7l-0.1,0l-0.3,0.5l-0.3-0.2L17,7.6l0.6,0.3c0.1,0.1,0.2,0.1,0.2,0.2c0.1,0.1,0.1,0.2,0.1,0.3
			c0,0.1,0,0.2-0.1,0.3c-0.1,0.1-0.1,0.2-0.2,0.2c-0.1,0-0.2,0.1-0.3,0l0,0.7L17,9.3z M17,8.4l0.2,0.1c0.1,0,0.1,0,0.2,0
			s0.1,0,0.1-0.1c0-0.1,0-0.1,0-0.1c0,0-0.1-0.1-0.1-0.1L17.2,8L17,8.4z"/>
		<path fill="#FFFFFF" d="M18.4,10l-0.4-0.4l-0.3,0.1l-0.3-0.3l1.5-0.8L19.2,9l-0.6,1.6l-0.3-0.3L18.4,10z M18.5,9.8l0.2-0.6
			l-0.5,0.3L18.5,9.8z"/>
		<path fill="#FFFFFF" d="M20.4,10.6c0,0.1,0,0.3-0.1,0.4c-0.1,0.1-0.1,0.2-0.3,0.3c-0.1,0.1-0.3,0.1-0.4,0.2s-0.3,0-0.4-0.1
			c-0.1-0.1-0.2-0.2-0.3-0.3l-0.3-0.5l1.3-0.9l0.3,0.5C20.3,10.4,20.4,10.5,20.4,10.6z M19.5,11.1c0.1,0,0.2,0,0.3-0.1
			c0.1-0.1,0.2-0.2,0.2-0.3c0-0.1,0-0.2-0.1-0.3l-0.1-0.1l-0.7,0.5l0.1,0.1C19.3,11,19.4,11.1,19.5,11.1z"/>
		<path fill="#FFFFFF" d="M20.8,11.8l-0.3,0.1l0.2,0.5l-0.3,0.1L20.2,12l-0.3,0.1l0.2,0.5l-0.3,0.1l-0.4-0.9l1.4-0.6l0.4,0.9
			L21,12.3L20.8,11.8z"/>
		<path fill="#FFFFFF" d="M20.2,13.7c0-0.1,0.1-0.2,0.1-0.2c0.1-0.1,0.1-0.1,0.2-0.1l0.1,0.4c-0.1,0-0.1,0-0.1,0.1s0,0.1,0,0.1
			c0,0.1,0,0.1,0.1,0.1c0,0,0.1,0,0.1,0c0,0,0.1,0,0.1-0.1c0,0,0-0.1,0-0.1c0,0,0-0.1,0-0.2c0-0.1,0-0.2,0.1-0.3
			c0-0.1,0.1-0.1,0.1-0.2c0.1-0.1,0.1-0.1,0.2-0.1c0.1,0,0.3,0,0.4,0.1c0.1,0.1,0.2,0.2,0.2,0.4c0,0.2,0,0.3-0.1,0.4
			c-0.1,0.1-0.2,0.2-0.3,0.2l-0.1-0.4c0,0,0.1,0,0.1-0.1s0-0.1,0-0.1c0,0,0-0.1-0.1-0.1c0,0-0.1,0-0.1,0c-0.1,0-0.1,0-0.1,0.1
			c0,0.1,0,0.1-0.1,0.2c0,0.1,0,0.2-0.1,0.3c0,0.1-0.1,0.1-0.1,0.2c-0.1,0.1-0.1,0.1-0.2,0.1c-0.1,0-0.2,0-0.3,0
			c-0.1,0-0.1-0.1-0.2-0.2c-0.1-0.1-0.1-0.2-0.1-0.3C20.1,13.9,20.1,13.8,20.2,13.7z"/>
		<path fill="#FFFFFF" d="M21.5,14.8c0.1,0.1,0.2,0.2,0.3,0.3s0.1,0.3,0.1,0.4c0,0.2-0.1,0.3-0.2,0.5c-0.1,0.1-0.2,0.2-0.4,0.2
			l0-0.4c0.1,0,0.1-0.1,0.2-0.1c0-0.1,0.1-0.1,0.1-0.2c0-0.1,0-0.2-0.1-0.3c-0.1-0.1-0.2-0.1-0.3-0.1c-0.1,0-0.2,0-0.3,0.1
			c-0.1,0.1-0.1,0.2-0.1,0.3c0,0.1,0,0.1,0,0.2c0,0.1,0.1,0.1,0.1,0.1l0,0.4c-0.2-0.1-0.3-0.2-0.4-0.3c-0.1-0.1-0.1-0.3-0.1-0.5
			c0-0.2,0.1-0.3,0.1-0.4s0.2-0.2,0.3-0.3c0.1-0.1,0.3-0.1,0.4-0.1C21.2,14.7,21.4,14.7,21.5,14.8z"/>
		<path fill="#FFFFFF" d="M21.3,18.1l-1.5-0.5l0.1-0.4l0.6,0.2l0.2-0.6l-0.6-0.2l0.1-0.4l1.5,0.5l-0.1,0.4L21,17l-0.2,0.6l0.6,0.2
			L21.3,18.1z"/>
		<path fill="#FFFFFF" d="M19.6,18.1c0.1-0.1,0.3-0.1,0.4-0.1c0.1,0,0.3,0,0.4,0.1c0.1,0.1,0.2,0.2,0.3,0.3c0.1,0.1,0.1,0.3,0.1,0.4
			c0,0.1,0,0.3-0.1,0.4c-0.1,0.1-0.2,0.2-0.3,0.3c-0.1,0.1-0.3,0.1-0.4,0.1c-0.1,0-0.3,0-0.4-0.1c-0.1-0.1-0.2-0.2-0.3-0.3
			c-0.1-0.1-0.1-0.3-0.1-0.4c0-0.1,0-0.3,0.1-0.4C19.4,18.3,19.5,18.2,19.6,18.1z M19.6,18.9c0,0.1,0.1,0.2,0.2,0.3
			c0.1,0.1,0.2,0.1,0.3,0.1c0.1,0,0.2-0.1,0.3-0.2c0.1-0.1,0.1-0.2,0.1-0.3c0-0.1-0.1-0.2-0.2-0.3c-0.1-0.1-0.2-0.1-0.3-0.1
			c-0.1,0-0.2,0.1-0.3,0.2C19.5,18.7,19.5,18.8,19.6,18.9z"/>
		<path fill="#FFFFFF" d="M18.6,19.5c0.1,0,0.3,0,0.4,0c0.1,0,0.3,0.1,0.4,0.2c0.1,0.1,0.2,0.2,0.2,0.4c0,0.1,0,0.3,0,0.4
			c0,0.1-0.1,0.3-0.2,0.4c-0.1,0.1-0.2,0.2-0.4,0.2c-0.1,0-0.3,0-0.4,0c-0.1,0-0.3-0.1-0.4-0.2c-0.1-0.1-0.2-0.2-0.2-0.4
			c0-0.1,0-0.3,0-0.4c0-0.1,0.1-0.3,0.2-0.4C18.4,19.6,18.5,19.6,18.6,19.5z M18.4,20.3c0,0.1,0.1,0.2,0.2,0.3
			c0.1,0.1,0.2,0.2,0.3,0.2c0.1,0,0.2,0,0.3-0.1c0.1-0.1,0.1-0.2,0.1-0.3c0-0.1-0.1-0.2-0.2-0.3c-0.1-0.1-0.2-0.2-0.3-0.2
			c-0.1,0-0.2,0-0.3,0.1C18.4,20.1,18.4,20.2,18.4,20.3z"/>
		<path fill="#FFFFFF" d="M17.4,20.8L17,21.1l-0.2-0.2l0.7-0.5l0.9,1.3l-0.3,0.2L17.4,20.8z"/>
	</g>
	<path fill="#FFFFFF" d="M11.4,22c0,0.2-0.1,0.3-0.3,0.3s-0.3-0.1-0.3-0.3s0.1-0.3,0.3-0.3S11.4,21.8,11.4,22z"/>
	<circle fill="#FFFFFF" cx="17.1" cy="21.7" r="0.3"/>
	<g>
		<g>
			<path fill="#FFFFFF" d="M11.8,21.8c0-0.1,0-0.2,0-0.3c0.2,0,0.4,0,0.6,0.1c0,0.5-0.1,1.1-0.1,1.6c-0.2,0-0.3,0-0.4,0
				c0.1-0.4,0.1-0.8,0.2-1.3C11.9,21.8,11.8,21.8,11.8,21.8z"/>
			<path fill="#FFFFFF" d="M13.3,22.9c0.1,0,0.1,0,0.2-0.1c0-0.1,0.1-0.2,0.1-0.3c0,0-0.1,0.1-0.1,0.1c-0.1,0-0.1,0-0.2,0
				c-0.1,0-0.2,0-0.3-0.1c-0.1,0-0.1-0.1-0.2-0.2c0-0.1-0.1-0.2,0-0.3c0-0.1,0-0.2,0.1-0.3c0.1-0.1,0.1-0.1,0.2-0.2
				c0.1,0,0.2-0.1,0.3-0.1c0.2,0,0.4,0.1,0.5,0.2c0.1,0.1,0.1,0.3,0.1,0.6c0,0.2,0,0.4,0,0.5c0,0.1-0.1,0.2-0.2,0.3
				c-0.1,0.1-0.2,0.1-0.4,0.1c-0.1,0-0.2,0-0.3-0.1c-0.1,0-0.2-0.1-0.2-0.2c0-0.1-0.1-0.2-0.1-0.2c0.2,0,0.2,0,0.4,0
				C13.1,22.8,13.1,22.9,13.3,22.9z M13.4,22.3c0,0,0.1-0.1,0.1-0.2c0-0.1,0-0.1-0.1-0.2c0,0-0.1-0.1-0.2-0.1c-0.1,0-0.1,0-0.2,0.1
				c0,0-0.1,0.1-0.1,0.2c0,0.1,0,0.1,0.1,0.2c0,0,0.1,0.1,0.2,0.1C13.3,22.3,13.4,22.3,13.4,22.3z"/>
			<path fill="#FFFFFF" d="M15.1,21.8c-0.1,0.5-0.3,0.9-0.5,1.4c-0.2,0-0.3,0-0.4,0c0.2-0.4,0.4-0.9,0.5-1.3c-0.3,0-0.4,0-0.7,0
				c0-0.1,0-0.2,0-0.3c0.4,0,0.7,0,1.1-0.1C15.1,21.6,15.1,21.7,15.1,21.8z"/>
			<path fill="#FFFFFF" d="M15.4,21.5c0.1-0.1,0.2-0.2,0.4-0.2c0.1,0,0.2,0,0.3,0c0.1,0,0.2,0.1,0.2,0.1c0.1,0.1,0.1,0.1,0.1,0.2
				c0,0.1,0,0.2,0,0.2c0,0.1-0.1,0.1-0.1,0.2c0,0,0,0,0,0c0.1,0,0.2,0,0.2,0.1c0.1,0.1,0.1,0.1,0.1,0.2c0,0.1,0,0.2,0,0.3
				c0,0.1-0.1,0.1-0.2,0.2c-0.1,0.1-0.2,0.1-0.3,0.1c-0.2,0-0.4,0-0.5,0c-0.1-0.1-0.2-0.2-0.2-0.4c0.2,0,0.2,0,0.4-0.1
				c0,0.1,0,0.1,0.1,0.1s0.1,0,0.2,0c0.1,0,0.1,0,0.1-0.1c0,0,0-0.1,0-0.1c0-0.1,0-0.1-0.1-0.1c-0.1,0-0.1,0-0.2,0c0,0,0,0-0.1,0
				c0-0.1,0-0.2-0.1-0.3c0,0,0,0,0.1,0c0.1,0,0.1,0,0.2-0.1c0,0,0.1-0.1,0-0.2c0-0.1,0-0.1-0.1-0.1c0,0-0.1,0-0.1,0
				c-0.1,0-0.1,0-0.1,0.1c0,0,0,0.1,0,0.1c-0.2,0-0.2,0-0.4,0.1C15.3,21.8,15.3,21.6,15.4,21.5z"/>
		</g>
	</g>
</g>
</svg>
